<?xml version="1.0" encoding="UTF-8" standalone="no"?>
<svg
   xmlns:dc="http://purl.org/dc/elements/1.1/"
   xmlns:cc="http://creativecommons.org/ns#"
   xmlns:rdf="http://www.w3.org/1999/02/22-rdf-syntax-ns#"
   xmlns:svg="http://www.w3.org/2000/svg"
   xmlns="http://www.w3.org/2000/svg"
   xmlns:sodipodi="http://sodipodi.sourceforge.net/DTD/sodipodi-0.dtd"
   xmlns:inkscape="http://www.inkscape.org/namespaces/inkscape"
   width="32"
   height="32"
   version="1.1"
   viewBox="0 0 22 22"
   id="svg396"
   sodipodi:docname="logo_src.svg"
   inkscape:version="1.0beta2 (a3b68d9, 2020-03-26)"
   inkscape:export-filename="C:\Users\muse_i.000\Documents\GitHub\Rummage\docs\src\markdown\images\rummage.png"
   inkscape:export-xdpi="395.15186"
   inkscape:export-ydpi="395.15186">
  <style
     id="style1640" />
  <metadata
     id="metadata402">
    <rdf:RDF>
      <cc:Work
         rdf:about="">
        <dc:format>image/svg+xml</dc:format>
        <dc:type
           rdf:resource="http://purl.org/dc/dcmitype/StillImage" />
        <dc:title></dc:title>
      </cc:Work>
    </rdf:RDF>
  </metadata>
  <defs
     id="defs400" />
  <sodipodi:namedview
     inkscape:document-rotation="0"
     pagecolor="#ffffff"
     bordercolor="#666666"
     borderopacity="1"
     objecttolerance="10"
     gridtolerance="10"
     guidetolerance="10"
     inkscape:pageopacity="0"
     inkscape:pageshadow="2"
     inkscape:window-width="2880"
     inkscape:window-height="1526"
     id="namedview398"
     showgrid="false"
     inkscape:zoom="20.703319"
     inkscape:cx="-1.3379906"
     inkscape:cy="26.815092"
     inkscape:window-x="-11"
     inkscape:window-y="-11"
     inkscape:window-maximized="1"
     inkscape:current-layer="layer3"
     viewbox-x="0" />
  <g
     inkscape:groupmode="layer"
     id="layer3"
     inkscape:label="glass"
     style="display:inline">
    <path
       style="fill:#f8f8f2;fill-opacity:1"
       id="path390"
       d="M 8.0311282,2.9943848 C 6.0976182,2.953753 4.1553248,4.1757125 3.558823,6.0531138 2.8663873,7.9516395 3.4812224,10.248918 5.1037842,11.477976 c 1.550061,1.262982 3.9102216,1.354102 5.5538088,0.217581 0.485636,0.519653 0.971273,1.039307 1.456909,1.55896 -0.25914,0.826944 0.09652,1.736217 0.775086,2.234314 0.655639,0.645421 1.300364,1.306172 1.955726,1.947385 0.987746,0.782527 2.614919,0.320182 3.042667,-0.865424 0.372904,-0.871168 0.0016,-1.928585 -0.773259,-2.446048 -0.61251,-0.612701 -1.241257,-1.213119 -1.822524,-1.851533 C 14.79579,11.781662 14.010412,11.8399 13.435056,11.838532 12.961301,11.331645 12.487547,10.824759 12.013793,10.317872 13.449535,8.2026583 12.820993,4.92397 10.54671,3.6583353 9.7883854,3.2146899 8.9077471,2.9938921 8.0311282,2.9943848 Z m 0,2.0007324 C 9.3173341,4.9500725 10.630266,5.8873429 10.746636,7.2210466 11.01073,8.599914 10.110042,10.09409 8.7223486,10.409272 7.260229,10.828341 5.595494,9.8080048 5.3365123,8.3027389 5.0877611,7.1272708 5.5885569,5.7481238 6.7528885,5.2691338 7.1522233,5.085943 7.592291,4.9953361 8.0311282,4.9951172 Z"
       inkscape:connector-curvature="0" />
    <path
       inkscape:connector-curvature="0"
       d="m 10.374596,0.396 c 0.245338,3.4512471 0.490637,6.9024967 0.735978,10.353746 C 10.58287,7.3233649 10.055073,3.8970009 9.5274242,0.47061361 8.8220533,0.6681259 7.6371172,0.58706704 8.3023606,1.5801815 9.2332553,4.6382563 10.165128,7.6960342 11.095945,10.754133 9.8161006,7.5243101 8.536427,4.2944215 7.2565899,1.064597 6.6139585,1.4143611 5.4404214,1.5991162 6.3092886,2.4185112 7.895315,5.1889082 9.4821447,7.9588467 11.06814,10.729265 9.1038746,7.868879 7.1387186,5.0091073 5.1745045,2.1486897 4.6270814,2.6323254 3.5249162,3.0734049 4.5528514,3.6779978 6.7116505,6.0218905 8.8696972,8.3664757 11.028634,10.710244 8.4814578,8.3628681 5.9336907,6.0161343 3.3865146,3.6687607 3.0529962,4.2114794 1.9917024,4.8625347 2.9886918,5.2072678 5.663795,7.0454944 8.3388984,8.8837211 11.014004,10.721949 8.0033237,8.997488 4.9925795,7.2731457 1.981875,5.5487326 1.6981253,6.2229779 0.89674015,7.0996101 2.0865609,7.1982472 5.053554,8.374867 8.0206801,9.5511528 10.987664,10.727803 7.6686355,9.7166303 4.349846,8.704679 1.030817,7.6935099 0.90456301,8.4141949 0.31888483,9.4475729 1.5008133,9.2788541 4.6557786,9.7657531 7.8107567,10.25257 10.965719,10.739503 7.5043504,10.492283 4.0429915,10.244977 0.581625,9.997755 c 0,0.499376 0,0.998752 0,1.49813 3.4511065,-0.246488 6.9022583,-0.492338 10.353368,-0.738823 -3.4267064,0.523968 -6.8535127,1.047265 -10.2802097,1.571279 0.19711157,0.70419 0.11398057,1.889655 1.1069785,1.226221 3.05337,-0.925619 6.1066789,-1.851439 9.1600632,-2.77702 -3.2252802,1.273875 -6.450645,2.547523 -9.6759224,3.821392 0.349184,0.642239 0.5318329,1.817625 1.3522602,0.949851 2.7696357,-1.581215 5.539417,-3.16218 8.3090232,-4.743443 -2.8595771,1.958879 -5.7189607,3.918045 -8.5785406,5.876921 0.4831388,0.548663 0.9230417,1.650967 1.5291724,0.623118 2.3487585,-2.158452 4.6976664,-4.316739 7.0464452,-6.475169 -2.3527748,2.547105 -4.7054836,5.094268 -7.0583138,7.641316 0.5935248,0.42764 1.2682662,1.40613 1.6307734,0.268087 1.8102949,-2.628572 3.6200241,-5.257528 5.4304644,-7.885995 -1.7274533,3.007989 -3.4550746,6.015884 -5.1825321,9.023867 0.6742957,0.284347 1.5506757,1.086858 1.6505339,-0.10312 1.1799884,-2.966186 2.3591416,-5.932699 3.5393162,-8.898811 -1.0150436,3.318573 -2.0297254,6.637257 -3.0448484,9.955803 0.4867468,0.111678 0.9734932,0.223355 1.4602401,0.335033 0.5319256,-3.422018 1.0643593,-6.843956 1.5963153,-10.265969 -0.250888,3.461027 -0.502643,6.921988 -0.753532,10.383008 0.730411,-0.03602 1.8675,0.307415 1.441346,-0.807585 -0.223959,-3.182525 -0.44772,-6.365063 -0.671718,-9.547587 0.525394,3.427409 1.051867,6.854652 1.577293,10.282055 0.703969,-0.196965 1.888086,-0.114509 1.224715,-1.106543 -0.926409,-3.052097 -1.852027,-6.104443 -2.778598,-9.156494 1.274713,3.223581 2.549996,6.446936 3.824712,9.670517 0.643814,-0.349017 1.815891,-0.533362 0.94728,-1.353606 -1.586066,-2.77486 -3.172902,-5.549276 -4.758827,-8.324228 1.964549,2.865562 3.929085,5.731112 5.893639,8.596666 0.549511,-0.48392 1.651171,-0.925176 0.622003,-1.531327 -2.163124,-2.351672 -4.326159,-4.703434 -6.4893,-7.055096 2.55229,2.355408 5.104451,4.710951 7.656744,7.066352 0.311658,-0.390136 0.623309,-0.780266 0.934963,-1.170408 -2.848333,-1.959889 -5.696551,-3.919955 -8.544889,-5.879849 3.005258,1.724078 6.01078,3.447673 9.016035,5.171754 0.285623,-0.674465 1.086251,-1.549516 -0.104249,-1.649077 -2.971495,-1.18074 -5.943232,-2.36084 -8.91467,-3.541698 3.323414,1.015051 6.646573,2.030987 9.970011,3.045994 0.127015,-0.720127 0.716229,-1.753519 -0.466392,-1.585812 -3.152261,-0.488732 -6.30454,-0.977325 -9.456797,-1.466032 3.458424,0.249432 6.916886,0.498171 10.375311,0.747601 4.89e-4,-0.499378 9.91e-4,-0.998754 0.0014,-1.498129 -3.453489,0.244251 -6.907029,0.488746 -10.360599,0.732984 C 14.540751,10.397164 17.969435,9.8705162 21.39812,9.3438233 21.200339,8.6404653 21.282042,7.4558873 20.290537,8.1193738 17.240379,9.0461524 14.189985,9.972123 11.13987,10.899011 14.361791,9.6238181 17.583584,8.3483233 20.805545,7.0732268 20.455747,6.4305727 20.270909,5.257321 19.451243,6.1257833 16.679694,7.7108198 13.90852,9.2964976 11.136903,10.881419 13.99854,8.9182971 16.859669,6.9544411 19.721301,4.9913249 19.237815,4.4445817 18.797506,3.3397716 18.192332,4.3674091 15.849935,6.5228116 13.507009,8.6776225 11.16471,10.83314 13.510659,8.2899318 15.856588,5.7467267 18.202535,3.2035222 17.608317,2.7764919 16.932207,1.7991468 16.570646,2.9374016 14.761775,5.5678055 12.953146,8.1983742 11.144219,10.828751 12.870061,7.8187195 14.596531,4.8090573 16.322365,1.7990299 15.872684,1.5820165 15.423005,1.3650023 14.973326,1.1479888 13.695006,4.3671055 12.416691,7.5862224 11.138371,10.805342 12.151222,7.4857154 13.164485,4.1662223 14.177369,0.84660801 13.456555,0.71968987 12.423229,0.13281335 12.591564,1.3152777 12.103505,4.47079 11.616348,7.6264434 11.128126,10.781933 11.376648,7.3199733 11.624361,3.8579575 11.872886,0.396 c -0.499434,0 -0.998862,0 -1.49829,0 z m 0.654038,10.353746 c 0.23659,0.04557 -0.06964,0.318244 -0.09214,0.08497 -3.4e-5,-0.04751 0.04615,-0.08673 0.09214,-0.08497 z"
       style="opacity:0.49958;fill-opacity:0.87058824;stroke-width:1.08961;fill:#f8f8f2"
       id="path300" />
    <path
       style="fill:#f8f8f2;fill-opacity:1"
       inkscape:connector-curvature="0"
       id="path1623"
       d="m 11.031437,0.3279375 c -5.7914856,0 -10.49775647,4.704604 -10.4999995,10.4960935 0,5.793068 4.7069318,10.500001 10.4999995,10.5 5.793066,-2e-6 10.5,-4.706934 10.5,-10.5 -0.0022,-5.7914895 -4.708513,-10.4960935 -10.5,-10.4960935 z m 0,1 c 5.251184,0 9.497966,4.2449068 9.5,9.4960935 0,5.252626 -4.247374,9.499998 -9.5,9.5 -5.2526275,10e-7 -9.4999995,-4.247372 -9.4999995,-9.5 0.00203,-5.2511867 4.2488162,-9.4960935 9.4999995,-9.4960935 z" />
  </g>
</svg>
