<?xml version="1.0" encoding="UTF-8" standalone="no"?>
<svg
   xmlns:dc="http://purl.org/dc/elements/1.1/"
   xmlns:cc="http://creativecommons.org/ns#"
   xmlns:rdf="http://www.w3.org/1999/02/22-rdf-syntax-ns#"
   xmlns:svg="http://www.w3.org/2000/svg"
   xmlns="http://www.w3.org/2000/svg"
   xmlns:sodipodi="http://sodipodi.sourceforge.net/DTD/sodipodi-0.dtd"
   xmlns:inkscape="http://www.inkscape.org/namespaces/inkscape"
   inkscape:export-ydpi="395.15186"
   inkscape:export-xdpi="395.15186"
   inkscape:export-filename="C:\Users\muse_i.000\Documents\GitHub\Rummage\docs\src\markdown\images\rummage.png"
   inkscape:version="1.0beta2 (a3b68d9, 2020-03-26)"
   sodipodi:docname="rummage_src.svg"
   id="svg396"
   viewBox="0 0 22 22"
   version="1.1"
   height="32"
   width="32">
  <style
     id="style1642" />
  <metadata
     id="metadata402">
    <rdf:RDF>
      <cc:Work
         rdf:about="">
        <dc:format>image/svg+xml</dc:format>
        <dc:type
           rdf:resource="http://purl.org/dc/dcmitype/StillImage" />
        <dc:title />
      </cc:Work>
    </rdf:RDF>
  </metadata>
  <defs
     id="defs400" />
  <sodipodi:namedview
     viewbox-x="0"
     inkscape:current-layer="layer5"
     inkscape:window-maximized="1"
     inkscape:window-y="-6"
     inkscape:window-x="-6"
     inkscape:cy="21.585413"
     inkscape:cx="8.872446"
     inkscape:zoom="13.560363"
     showgrid="false"
     id="namedview398"
     inkscape:window-height="1018"
     inkscape:window-width="1920"
     inkscape:pageshadow="2"
     inkscape:pageopacity="0"
     guidetolerance="10"
     gridtolerance="10"
     objecttolerance="10"
     borderopacity="1"
     bordercolor="#666666"
     pagecolor="#ffffff"
     inkscape:document-rotation="0" />
  <g
     style="display:inline"
     inkscape:label="background"
     id="layer5"
     inkscape:groupmode="layer">
    <path
       sodipodi:nodetypes="csssccc"
       inkscape:connector-curvature="0"
       d="m 20.556534,11.204039 c 0.01519,5.416446 -4.254642,9.400252 -9.542845,9.403883 -5.2882041,0.0036 -9.5790724,-4.308504 -9.5862837,-9.633797 -0.00721,-5.3252957 4.2719625,-9.6491996 9.5601567,-9.6600924 5.288195,-0.010892 10.086225,4.6143732 10.100647,9.9396544 L 11.007157,10.96097 Z"
       style="fill:#2e81b9;stroke-width:0.0651914"
       id="path1579" />
  </g>
  <g
     style="display:inline"
     inkscape:label="stripes"
     id="layer7"
     inkscape:groupmode="layer">
    <path
       inkscape:connector-curvature="0"
       d="M 10.342179,0.60274335 C 10.58671,4.0539905 10.8312,7.5052401 11.075734,10.956491 10.549768,7.5301083 10.023707,4.1037443 9.497795,0.67735696 8.7947456,0.87486925 7.6137092,0.79381039 8.2767632,1.7869249 9.2045943,4.8449997 10.1334,7.9027776 11.061154,10.960878 9.7855213,7.7310535 8.5100593,4.5011649 7.2344343,1.2713404 6.5939179,1.6211045 5.424243,1.8058596 6.2902507,2.6252546 7.8710573,5.3956516 9.4526645,8.1655901 11.033441,10.93601 9.0756394,8.0756224 7.1169509,5.2158507 5.1592013,2.3554331 4.6135798,2.8390688 3.515042,3.2801483 4.5395941,3.8847412 6.6912884,6.2286339 8.8422327,8.5732191 10.994065,10.916989 8.455271,8.5696115 5.9158889,6.2228777 3.3770959,3.8755041 3.0446751,4.4182228 1.9868742,5.0692781 2.9805824,5.4140112 5.6468815,7.2522378 8.3131808,9.0904645 10.979483,10.928694 7.9787105,9.2042314 4.977875,7.4798891 1.9770791,5.755476 1.6942633,6.4297213 0.89551557,7.3063535 2.0814205,7.4049906 5.0386488,8.5816104 7.9960098,9.7578962 10.953228,10.934548 7.6451238,9.9233737 4.3372568,8.9114224 1.0291512,7.9002533 0.90331268,8.6209383 0.31956204,9.6543163 1.4976006,9.4855975 4.6421826,9.9724965 7.7867773,10.459315 10.931356,10.946248 7.4813794,10.699028 4.0314122,10.451722 0.5814375,10.2045 c 0,0.499376 0,0.998752 0,1.49813 3.4397485,-0.246488 6.8795421,-0.492338 10.3192935,-0.738823 -3.4154284,0.523968 -6.8309566,1.047265 -10.24637597,1.571279 0.19646285,0.70419 0.11360544,1.889655 1.10333527,1.226221 3.043321,-0.925619 6.0865811,-1.851439 9.1299157,-2.77702 -3.2146648,1.273875 -6.4294145,2.547523 -9.6440771,3.821392 0.3480348,0.642239 0.5300826,1.817625 1.3478097,0.949851 2.7605205,-1.581215 5.5211861,-3.16218 8.2816774,-4.743443 -2.850166,1.958879 -5.7001391,3.918045 -8.5503078,5.876921 0.4815488,0.548663 0.9200039,1.650967 1.5241398,0.623118 2.3410284,-2.158452 4.6822058,-4.316739 7.023255,-6.475169 -2.3450321,2.547105 -4.6899978,5.094268 -7.0350846,7.641316 0.5915715,0.42764 1.2640922,1.40613 1.6254063,0.268087 1.8043371,-2.628572 3.6081102,-5.257528 5.4125913,-7.885995 -1.7217672,3.007989 -3.4437027,6.015884 -5.1654749,9.023867 0.6720765,0.284347 1.5455722,1.086858 1.6451018,-0.10312 1.1761049,-2.966186 2.3513774,-5.932699 3.5276671,-8.898811 -1.0117022,3.318573 -2.0230446,6.637257 -3.0348267,9.955803 0.4851449,0.111678 0.9702893,0.223355 1.4554343,0.335033 0.530175,-3.422018 1.0608554,-6.843956 1.5910624,-10.265969 -0.250064,3.461027 -0.500989,6.921988 -0.751052,10.383008 0.728007,-0.03602 1.861353,0.307415 1.436602,-0.807585 -0.223223,-3.182525 -0.446247,-6.365063 -0.669507,-9.547587 0.523665,3.427409 1.048405,6.854652 1.572102,10.282055 0.701652,-0.196965 1.881872,-0.114509 1.220684,-1.106543 -0.92336,-3.052097 -1.845932,-6.104443 -2.769453,-9.156494 1.270517,3.223581 2.541603,6.446936 3.812124,9.670517 0.641695,-0.349017 1.809915,-0.533362 0.944163,-1.353606 -1.580847,-2.77486 -3.16246,-5.549276 -4.743166,-8.324228 1.958084,2.865562 3.916154,5.731112 5.874243,8.596666 0.547702,-0.48392 1.645737,-0.925176 0.619956,-1.531327 -2.156005,-2.351672 -4.311921,-4.703434 -6.467943,-7.055096 2.54389,2.355408 5.087651,4.710951 7.631544,7.066352 0.310633,-0.390136 0.621258,-0.780266 0.931886,-1.170408 -2.838958,-1.959889 -5.677803,-3.919955 -8.516766,-5.879849 2.995367,1.724078 5.990997,3.447673 8.986362,5.171754 0.284683,-0.674465 1.082676,-1.549516 -0.103906,-1.649077 -2.961716,-1.18074 -5.923672,-2.36084 -8.885331,-3.541698 3.312476,1.015051 6.624698,2.030987 9.937199,3.045994 0.126597,-0.720127 0.713871,-1.753519 -0.464857,-1.585812 -3.141887,-0.488732 -6.283791,-0.977325 -9.425675,-1.466032 3.447042,0.249432 6.894123,0.498171 10.341166,0.747601 4.86e-4,-0.499378 9.86e-4,-0.998754 0.0014,-1.498129 -3.442123,0.244251 -6.884298,0.488746 -10.326502,0.732984 3.417369,-0.526719 6.83477,-1.053368 10.25217,-1.5800613 C 21.132293,8.8472087 21.213727,7.6626307 20.225486,8.3261172 17.185366,9.2528958 14.14501,10.178868 11.104934,11.105756 14.316252,9.8305615 17.527442,8.5550667 20.738799,7.2799702 20.390152,6.6373161 20.205922,5.4640644 19.388954,6.3325267 16.626526,7.9175632 13.864472,9.503241 11.101977,11.088164 13.954195,9.1250405 16.805908,7.1611845 19.658123,5.1980683 19.176228,4.6513251 18.737368,3.546515 18.134186,4.5741525 15.799497,6.729555 13.464283,8.8843659 11.129692,11.039885 13.467921,8.4966752 15.806128,5.9534701 18.144355,3.4102656 17.552093,2.9832353 16.878208,2.0058902 16.517837,3.144145 14.714918,5.7745489 12.912242,8.4051176 11.109268,11.035496 12.82943,8.0254629 14.550218,5.0158007 16.270373,2.0057733 15.822172,1.7887599 15.373972,1.5717457 14.925774,1.3547322 13.651661,4.5738489 12.377553,7.7929658 11.10344,11.012087 12.112958,7.6924588 13.122886,4.3729657 14.132437,1.0533514 13.413995,0.92643322 12.38407,0.3395567 12.551851,1.5220211 12.065398,4.6775334 11.579844,7.8331868 11.093229,10.988678 11.340933,7.5267167 11.587831,4.0647009 11.835538,0.60274335 c -0.49779,0 -0.995575,0 -1.493359,0 z M 10.994065,10.956491 c 0.235811,0.04557 -0.06941,0.318244 -0.09184,0.08497 -3.4e-5,-0.04751 0.046,-0.08673 0.09184,-0.08497 z"
       style="fill:#ffffff;fill-opacity:0.3;stroke-width:1.08782"
       id="path300" />
  </g>
  <g
     style="display:inline"
     inkscape:label="border"
     id="layer1"
     inkscape:groupmode="layer">
    <path
       style="stroke:#2e81b9"
       inkscape:connector-curvature="0"
       id="path362"
       stroke="#efefef"
       fill="none"
       d="m 21.031436,11.030998 a 10,10 0 0 1 -9.999997,10 10,10 0 0 1 -10.0000015,-10 10,10 0 0 1 19.9999985,0 z" />
  </g>
  <g
     style="display:inline"
     inkscape:label="glass-accent"
     id="layer2"
     inkscape:groupmode="layer">
    <g
       transform="translate(1.012875,2.029635)"
       style="fill:#2e81b9;fill-opacity:1"
       id="g376"
       fill="#999999">
      <path
         style="fill:none;stroke:#2e81b9"
         inkscape:connector-curvature="0"
         id="path366"
         stroke-width="2"
         stroke="#999999"
         fill="none"
         d="m 10.75,6.9203 a 3.75,3.75 0 0 1 -3.75,3.75 3.75,3.75 0 0 1 -3.75,-3.75 3.75,3.75 0 0 1 7.5,0 z" />
      <path
         style="fill:#2e81b9"
         inkscape:connector-curvature="0"
         id="path368"
         d="m 10.189208,8.6447 2.645042,2.8284 -1.322522,1.4142 -2.6450405,-2.8284 z" />
      <path
         style="fill:#2e81b9"
         inkscape:connector-curvature="0"
         id="path370"
         d="m 15,13 a 2,2 0 0 1 -2,2 2,2 0 0 1 -2,-2 2,2 0 0 1 4,0 z" />
      <path
         style="fill:#2e81b9"
         inkscape:connector-curvature="0"
         id="path372"
         stroke-width="0.98658"
         d="m 14.165,11.393 2.0985,2.0872 -2.7981,2.7829 -2.0985,-2.0872 z" />
      <path
         style="fill:#2e81b9"
         inkscape:connector-curvature="0"
         id="path374"
         d="m 17,15 a 2,2 0 0 1 -2,2 2,2 0 0 1 -2,-2 2,2 0 0 1 4,0 z" />
    </g>
  </g>
  <g
     style="display:inline"
     inkscape:label="glass"
     id="layer3"
     inkscape:groupmode="layer">
    <g
       transform="translate(1.0314375,1.0309933)"
       id="g392"
       fill="#efefef">
      <path
         inkscape:connector-curvature="0"
         id="path382"
         stroke-width="2"
         stroke="#efefef"
         fill="none"
         d="m 10.75,6.9203 a 3.75,3.75 0 0 1 -3.75,3.75 3.75,3.75 0 0 1 -3.75,-3.75 3.75,3.75 0 0 1 7.5,0 z" />
      <path
         inkscape:connector-curvature="0"
         id="path384"
         d="M 10.18902,8.6447 12.834062,11.4731 11.51154,12.8873 8.8665,10.0589 Z" />
      <path
         inkscape:connector-curvature="0"
         id="path386"
         d="m 15,13 a 2,2 0 0 1 -2,2 2,2 0 0 1 -2,-2 2,2 0 0 1 4,0 z" />
      <path
         inkscape:connector-curvature="0"
         id="path388"
         stroke-width="0.98658"
         d="m 14.165,11.393 2.0985,2.0872 -2.7981,2.7829 -2.0985,-2.0872 z" />
      <path
         inkscape:connector-curvature="0"
         id="path390"
         d="m 17,15 a 2,2 0 0 1 -2,2 2,2 0 0 1 -2,-2 2,2 0 0 1 4,0 z" />
    </g>
  </g>
</svg>
