<svg width="32" height="32" version="1.1" viewBox="0 0 22 22" xmlns="http://www.w3.org/2000/svg">
 <style/>
 <g>
  <path d="m20.557 11.204c0.01519 5.4164-4.2546 9.4003-9.5428 9.4039-5.2882 0.0036-9.5791-4.3085-9.5863-9.6338-0.00721-5.3253 4.272-9.6492 9.5602-9.6601 5.2882-0.010892 10.086 4.6144 10.101 9.9397l-10.081-0.29272z" fill="#2e81b9" stroke-width=".065191"/>
 </g>
 <g>
  <path d="m10.342 0.60274c0.24453 3.4512 0.48902 6.9025 0.73356 10.354-0.52597-3.4264-1.052-6.8527-1.5779-10.279-0.70305 0.19751-1.8841 0.11645-1.221 1.1096 0.92783 3.0581 1.8566 6.1159 2.7844 9.174-1.2756-3.2298-2.5511-6.4597-3.8267-9.6895-0.64052 0.34976-1.8102 0.53452-0.94418 1.3539 1.5808 2.7704 3.1624 5.5403 4.7432 8.3108-1.9578-2.8604-3.9165-5.7202-5.8742-8.5806-0.54562 0.48364-1.6442 0.92472-0.61961 1.5293 2.1517 2.3439 4.3026 4.6885 6.4545 7.0322-2.5388-2.3474-5.0782-4.6941-7.617-7.0415-0.33242 0.54272-1.3902 1.1938-0.39651 1.5385 2.6663 1.8382 5.3326 3.6765 7.9989 5.5147-3.0008-1.7245-6.0016-3.4488-9.0024-5.1732-0.28282 0.67425-1.0816 1.5509 0.10434 1.6495 2.9572 1.1766 5.9146 2.3529 8.8718 3.5296-3.3081-1.0112-6.616-2.0231-9.9241-3.0343-0.12584 0.72068-0.70959 1.7541 0.46845 1.5853 3.1446 0.4869 6.2892 0.97372 9.4338 1.4607-3.45-0.24722-6.8999-0.49453-10.35-0.74175v1.4981c3.4397-0.24649 6.8795-0.49234 10.319-0.73882-3.4154 0.52397-6.831 1.0473-10.246 1.5713 0.19646 0.70419 0.11361 1.8897 1.1033 1.2262 3.0433-0.92562 6.0866-1.8514 9.1299-2.777-3.2147 1.2739-6.4294 2.5475-9.6441 3.8214 0.34803 0.64224 0.53008 1.8176 1.3478 0.94985 2.7605-1.5812 5.5212-3.1622 8.2817-4.7434-2.8502 1.9589-5.7001 3.918-8.5503 5.8769 0.48155 0.54866 0.92 1.651 1.5241 0.62312 2.341-2.1585 4.6822-4.3167 7.0233-6.4752-2.345 2.5471-4.69 5.0943-7.0351 7.6413 0.59157 0.42764 1.2641 1.4061 1.6254 0.26809 1.8043-2.6286 3.6081-5.2575 5.4126-7.886-1.7218 3.008-3.4437 6.0159-5.1655 9.0239 0.67208 0.28435 1.5456 1.0869 1.6451-0.10312 1.1761-2.9662 2.3514-5.9327 3.5277-8.8988-1.0117 3.3186-2.023 6.6373-3.0348 9.9558 0.48514 0.11168 0.97029 0.22336 1.4554 0.33503 0.53018-3.422 1.0609-6.844 1.5911-10.266-0.25006 3.461-0.50099 6.922-0.75105 10.383 0.72801-0.03602 1.8614 0.30742 1.4366-0.80758-0.22322-3.1825-0.44625-6.3651-0.66951-9.5476 0.52366 3.4274 1.0484 6.8547 1.5721 10.282 0.70165-0.19696 1.8819-0.11451 1.2207-1.1065-0.92336-3.0521-1.8459-6.1044-2.7695-9.1565 1.2705 3.2236 2.5416 6.4469 3.8121 9.6705 0.6417-0.34902 1.8099-0.53336 0.94416-1.3536-1.5808-2.7749-3.1625-5.5493-4.7432-8.3242 1.9581 2.8656 3.9162 5.7311 5.8742 8.5967 0.5477-0.48392 1.6457-0.92518 0.61996-1.5313-2.156-2.3517-4.3119-4.7034-6.4679-7.0551 2.5439 2.3554 5.0877 4.711 7.6315 7.0664 0.31063-0.39014 0.62126-0.78027 0.93189-1.1704-2.839-1.9599-5.6778-3.92-8.5168-5.8798 2.9954 1.7241 5.991 3.4477 8.9864 5.1718 0.28468-0.67446 1.0827-1.5495-0.10391-1.6491-2.9617-1.1807-5.9237-2.3608-8.8853-3.5417 3.3125 1.0151 6.6247 2.031 9.9372 3.046 0.1266-0.72013 0.71387-1.7535-0.46486-1.5858-3.1419-0.48873-6.2838-0.97732-9.4257-1.466 3.447 0.24943 6.8941 0.49817 10.341 0.7476 4.86e-4 -0.49938 9.86e-4 -0.99875 0.0014-1.4981-3.4421 0.24425-6.8843 0.48875-10.327 0.73298 3.4174-0.52672 6.8348-1.0534 10.252-1.5801-0.19713-0.70336-0.1157-1.8879-1.1039-1.2244-3.0401 0.92678-6.0805 1.8528-9.1206 2.7796 3.2113-1.2752 6.4225-2.5507 9.6339-3.8258-0.34865-0.64265-0.53288-1.8159-1.3498-0.94744-2.7624 1.585-5.5245 3.1707-8.287 4.7556 2.8522-1.9631 5.7039-3.927 8.5561-5.8901-0.4819-0.54674-0.92076-1.6516-1.5239-0.62392-2.3347 2.1554-4.6699 4.3102-7.0045 6.4657 2.3382-2.5432 4.6764-5.0864 7.0147-7.6296-0.59226-0.42703-1.2661-1.4044-1.6265-0.26612-1.8029 2.6304-3.6056 5.261-5.4086 7.8914 1.7202-3.01 3.441-6.0197 5.1611-9.0297-0.4482-0.21701-0.8964-0.43403-1.3446-0.65104-1.2741 3.2191-2.5482 6.4382-3.8223 9.6574 1.0095-3.3196 2.0194-6.6391 3.029-9.9587-0.71844-0.12692-1.7484-0.71379-1.5806 0.46867-0.48645 3.1555-0.97201 6.3112-1.4586 9.4667 0.2477-3.462 0.4946-6.924 0.74231-10.386h-1.4934zm0.65189 10.354c0.23581 0.04557-0.06941 0.31824-0.09184 0.08497-3.4e-5 -0.04751 0.046-0.08673 0.09184-0.08497z" fill="#fff" fill-opacity=".3" stroke-width="1.0878"/>
 </g>
 <g>
  <path d="m21.031 11.031a10 10 0 0 1-10 10 10 10 0 0 1-10-10 10 10 0 0 1 20 0z" fill="none" stroke="#2e81b9"/>
 </g>
 <g>
  <g transform="translate(1.0129 2.0296)">
   <path d="m10.75 6.9203a3.75 3.75 0 0 1-3.75 3.75 3.75 3.75 0 0 1-3.75-3.75 3.75 3.75 0 0 1 7.5 0z" fill="none" stroke="#2e81b9" stroke-width="2"/>
   <g fill="#2e81b9">
    <path d="m10.189 8.6447 2.645 2.8284-1.3225 1.4142-2.645-2.8284z"/>
    <path d="m15 13a2 2 0 0 1-2 2 2 2 0 0 1-2-2 2 2 0 0 1 4 0z"/>
    <path d="m14.165 11.393 2.0985 2.0872-2.7981 2.7829-2.0985-2.0872z" stroke-width=".98658"/>
    <path d="m17 15a2 2 0 0 1-2 2 2 2 0 0 1-2-2 2 2 0 0 1 4 0z"/>
   </g>
  </g>
 </g>
 <g>
  <g transform="translate(1.0314 1.031)" fill="#efefef">
   <path d="m10.75 6.9203a3.75 3.75 0 0 1-3.75 3.75 3.75 3.75 0 0 1-3.75-3.75 3.75 3.75 0 0 1 7.5 0z" fill="none" stroke="#efefef" stroke-width="2"/>
   <path d="m10.189 8.6447 2.645 2.8284-1.3225 1.4142-2.645-2.8284z"/>
   <path d="m15 13a2 2 0 0 1-2 2 2 2 0 0 1-2-2 2 2 0 0 1 4 0z"/>
   <path d="m14.165 11.393 2.0985 2.0872-2.7981 2.7829-2.0985-2.0872z" stroke-width=".98658"/>
   <path d="m17 15a2 2 0 0 1-2 2 2 2 0 0 1-2-2 2 2 0 0 1 4 0z"/>
  </g>
 </g>
</svg>
