<svg width="32" height="32" version="1.1" viewBox="0 0 22 22" xmlns="http://www.w3.org/2000/svg">
 <style/>
 <g fill="#f8f8f2">
  <path d="m8.0311 2.9944c-1.9335-0.040632-3.8758 1.1813-4.4723 3.0587-0.69244 1.8985-0.077601 4.1958 1.545 5.4249 1.5501 1.263 3.9102 1.3541 5.5538 0.21758 0.48564 0.51965 0.97127 1.0393 1.4569 1.559-0.25914 0.82694 0.09652 1.7362 0.77509 2.2343 0.65564 0.64542 1.3004 1.3062 1.9557 1.9474 0.98775 0.78253 2.6149 0.32018 3.0427-0.86542 0.3729-0.87117 0.0016-1.9286-0.77326-2.446-0.61251-0.6127-1.2413-1.2131-1.8225-1.8515-0.49641-0.49155-1.2818-0.43331-1.8571-0.43468-0.47376-0.50689-0.94751-1.0138-1.4213-1.5207 1.4357-2.1152 0.8072-5.3939-1.4671-6.6595-0.75832-0.44365-1.639-0.66444-2.5156-0.66395zm0 2.0007c1.2862-0.045045 2.5991 0.89223 2.7155 2.2259 0.26409 1.3789-0.63659 2.873-2.0243 3.1882-1.4621 0.41907-3.1269-0.60127-3.3858-2.1065-0.24875-1.1755 0.25204-2.5546 1.4164-3.0336 0.39933-0.18319 0.8394-0.2738 1.2782-0.27402z"/>
  <path d="m10.375 0.396c0.24534 3.4512 0.49064 6.9025 0.73598 10.354-0.5277-3.4264-1.0555-6.8527-1.5831-10.279-0.70537 0.19751-1.8903 0.11645-1.2251 1.1096 0.93089 3.0581 1.8628 6.1159 2.7936 9.174-1.2798-3.2298-2.5595-6.4597-3.8394-9.6895-0.64263 0.34976-1.8162 0.53452-0.9473 1.3539 1.586 2.7704 3.1729 5.5403 4.7589 8.3108-1.9643-2.8604-3.9294-5.7202-5.8936-8.5806-0.54742 0.48364-1.6496 0.92472-0.62165 1.5293 2.1588 2.3439 4.3168 4.6885 6.4758 7.0322-2.5472-2.3474-5.0949-4.6941-7.6421-7.0415-0.33352 0.54272-1.3948 1.1938-0.39782 1.5385 2.6751 1.8382 5.3502 3.6765 8.0253 5.5147-3.0107-1.7245-6.0214-3.4488-9.0321-5.1732-0.28375 0.67425-1.0851 1.5509 0.10469 1.6495 2.967 1.1766 5.9341 2.3529 8.9011 3.5296-3.319-1.0112-6.6378-2.0231-9.9568-3.0343-0.12625 0.72068-0.71193 1.7541 0.47 1.5853 3.155 0.4869 6.3099 0.97372 9.4649 1.4606-3.4614-0.24722-6.9227-0.49453-10.384-0.74175v1.4981c3.4511-0.24649 6.9023-0.49234 10.353-0.73882-3.4267 0.52397-6.8535 1.0473-10.28 1.5713 0.19711 0.70419 0.11398 1.8897 1.107 1.2262 3.0534-0.92562 6.1067-1.8514 9.1601-2.777-3.2253 1.2739-6.4506 2.5475-9.6759 3.8214 0.34918 0.64224 0.53183 1.8176 1.3523 0.94985 2.7696-1.5812 5.5394-3.1622 8.309-4.7434-2.8596 1.9589-5.719 3.918-8.5785 5.8769 0.48314 0.54866 0.92304 1.651 1.5292 0.62312 2.3488-2.1585 4.6977-4.3167 7.0464-6.4752-2.3528 2.5471-4.7055 5.0943-7.0583 7.6413 0.59352 0.42764 1.2683 1.4061 1.6308 0.26809 1.8103-2.6286 3.62-5.2575 5.4305-7.886-1.7275 3.008-3.4551 6.0159-5.1825 9.0239 0.6743 0.28435 1.5507 1.0869 1.6505-0.10312 1.18-2.9662 2.3591-5.9327 3.5393-8.8988-1.015 3.3186-2.0297 6.6373-3.0448 9.9558 0.48675 0.11168 0.97349 0.22336 1.4602 0.33503 0.53193-3.422 1.0644-6.844 1.5963-10.266-0.25089 3.461-0.50264 6.922-0.75353 10.383 0.73041-0.03602 1.8675 0.30742 1.4413-0.80758-0.22396-3.1825-0.44772-6.3651-0.67172-9.5476 0.52539 3.4274 1.0519 6.8547 1.5773 10.282 0.70397-0.19696 1.8881-0.11451 1.2247-1.1065-0.92641-3.0521-1.852-6.1044-2.7786-9.1565 1.2747 3.2236 2.55 6.4469 3.8247 9.6705 0.64381-0.34902 1.8159-0.53336 0.94728-1.3536-1.5861-2.7749-3.1729-5.5493-4.7588-8.3242 1.9645 2.8656 3.9291 5.7311 5.8936 8.5967 0.54951-0.48392 1.6512-0.92518 0.622-1.5313-2.1631-2.3517-4.3262-4.7034-6.4893-7.0551 2.5523 2.3554 5.1045 4.711 7.6567 7.0664 0.31166-0.39014 0.62331-0.78027 0.93496-1.1704-2.8483-1.9599-5.6966-3.92-8.5449-5.8798 3.0053 1.7241 6.0108 3.4477 9.016 5.1718 0.28562-0.67446 1.0863-1.5495-0.10425-1.6491-2.9715-1.1807-5.9432-2.3608-8.9147-3.5417 3.3234 1.0151 6.6466 2.031 9.97 3.046 0.12702-0.72013 0.71623-1.7535-0.46639-1.5858-3.1523-0.48873-6.3045-0.97732-9.4568-1.466 3.4584 0.24943 6.9169 0.49817 10.375 0.7476 4.89e-4 -0.49938 9.91e-4 -0.99875 0.0014-1.4981-3.4535 0.24425-6.907 0.48875-10.361 0.73298 3.4287-0.52672 6.8573-1.0534 10.286-1.5801-0.19778-0.70336-0.11608-1.8879-1.1076-1.2244-3.0502 0.92678-6.1006 1.8527-9.1507 2.7796 3.2219-1.2752 6.4437-2.5507 9.6657-3.8258-0.3498-0.64265-0.53464-1.8159-1.3543-0.94744-2.7715 1.585-5.5427 3.1707-8.3143 4.7556 2.8616-1.9631 5.7228-3.927 8.5844-5.8901-0.48349-0.54674-0.9238-1.6516-1.529-0.62392-2.3424 2.1554-4.6853 4.3102-7.0276 6.4657 2.3459-2.5432 4.6919-5.0864 7.0378-7.6296-0.59422-0.42703-1.2703-1.4044-1.6319-0.26612-1.8089 2.6304-3.6175 5.261-5.4264 7.8913 1.7258-3.01 3.4523-6.0197 5.1781-9.0297-0.44968-0.21701-0.89936-0.43403-1.349-0.65104-1.2783 3.2191-2.5566 6.4382-3.835 9.6574 1.0129-3.3196 2.0261-6.6391 3.039-9.9587-0.72081-0.12692-1.7541-0.71379-1.5858 0.46867-0.48806 3.1555-0.97522 6.3112-1.4634 9.4667 0.24852-3.462 0.49624-6.924 0.74476-10.386h-1.4983zm0.65404 10.354c0.23659 0.04557-0.06964 0.31824-0.09214 0.08497-3.4e-5 -0.04751 0.04615-0.08673 0.09214-0.08497z" fill-opacity=".87059" opacity=".49958" stroke-width="1.0896"/>
  <path d="m11.031 0.32794c-5.7915 0-10.498 4.7046-10.5 10.496 0 5.7931 4.7069 10.5 10.5 10.5 5.7931-2e-6 10.5-4.7069 10.5-10.5-0.0022-5.7915-4.7085-10.496-10.5-10.496zm0 1c5.2512 0 9.498 4.2449 9.5 9.4961 0 5.2526-4.2474 9.5-9.5 9.5-5.2526 1e-6 -9.5-4.2474-9.5-9.5 0.00203-5.2512 4.2488-9.4961 9.5-9.4961z"/>
 </g>
</svg>
